# xmcd
#
# Track frame offsets:
#   150
#   21477
#   45202
#   62560
#   81012
#   93440
#   105815
#   123505
#   137977
#   155775
#   176352
#   195950
#   211695
#   228295
#   243107
#   255967
#   272697
#   288512
#   301692
#   317885
#
# Disc length: 4480 seconds
#
# Revision: 2
# Processed by: cddbd v1.5.1PL0 Copyright (c) Steve Scherf et al.
# Submitted via: Media_Universe 3.0
#
DISCID=fb117e14
DTITLE=Various Artist - Forever Salsa - CD1
DYEAR=2001
DGENRE=Salsa
TTITLE0=No La Banda - Los Sitios Entero
TTITLE1=Los Van Van - La Habana Si
TTITLE2=Orquestra Anacaona - No Te Quedes Sentado
TTITLE3=Son 14 - Condenado Por Amor
TTITLE4=Benny Moré - Cienfuegos
TTITLE5=Orquestra BIS Music - Quimbombó Que Resbald
TTITLE6=Orquestra Sensación - ¿ Como Está Mi Conuco ?
TTITLE7=Son Damas - Corazón De Melón
TTITLE8=Son De Oro - No, No Te Engañes
TTITLE9=Sabanas Blancas  - Paranoico
TTITLE10=Benny Moré - Que Bueno Baila Usted
TTITLE11=Chicuelo Son - El Panquelero
TTITLE12=Las Mas Famosas De Cuba - Son De La Loma
TTITLE13=Orquestra Sensación - Changüy Monte
TTITLE14=Carlos Puebla - Si No Fuera Por Emiliana
TTITLE15=Yumuri Y Sus Hermanos - Esa Que Te Toca A Ti
TTITLE16=Checuelo Son - El Tomatero
TTITLE17=Jorge Reyes - Rumba Con Swing
TTITLE18=Orquestra Anacaona - La Botánica
TTITLE19=Mayito Rivera - La Guarapachanga
EXTD=YEAR: 2001
EXTT0=
EXTT1=
EXTT2=
EXTT3=
EXTT4=
EXTT5=
EXTT6=
EXTT7=
EXTT8=
EXTT9=
EXTT10=
EXTT11=
EXTT12=
EXTT13=
EXTT14=
EXTT15=
EXTT16=
EXTT17=
EXTT18=
EXTT19=
PLAYORDER=
